<svg width="886" height="40" viewBox="0 0 886 40" fill="none" xmlns="http://www.w3.org/2000/svg">
    <g clip-path="url(#clip0)">
        <path d="M581.53 6.87991C581.42 6.32991 581.2 4.61991 580.98 3.18991C580.92 3.73991 580.87 4.22991 580.81 4.77991C580.7 5.32991 580.65 5.93992 580.54 6.53992L577.35 24.8599H584.56L581.53 6.87991ZM582.85 0.169922L589.89 39.2299H587.03L585.05 27.3999H576.91L574.88 39.2299H572.02L579.11 0.169922H582.85Z" fill="black"/>
        <path d="M604.96 2.69965V17.9896H609.86C612.89 17.9896 614.59 16.7796 614.59 13.8696V7.86963C614.59 3.40963 612.66 2.69965 610.02 2.69965H604.96ZM602.26 0.389648H609.74C612.71 0.389648 617.44 0.829638 617.44 7.15964V13.2096C617.44 14.8096 617.44 19.0396 611.99 20.0896L619.14 39.2296H616.28L609.18 20.3096H604.94V39.2296H602.25V0.389648H602.26Z" fill="black"/>
        <path d="M630.74 9.35974C630.74 6.38974 630.74 4.18975 632.78 2.20975C634.37 0.449747 636.41 0.00976562 638.44 0.00976562C639.98 0.00976562 641.52 0.339741 642.79 1.10974C644 1.81974 645.82 3.35975 645.82 7.48975V12.9297H643.12C643.12 6.98975 643.12 5.88976 642.46 4.62976C641.74 3.19976 640.26 2.47977 638.72 2.47977C634.87 2.47977 633.38 4.89975 633.38 8.80975V27.7298C633.38 32.6798 633.38 37.2997 638.77 37.2997C643.5 37.2997 643.5 33.0098 643.5 31.8498V25.8498H646.25V31.8498C646.25 33.8298 646.25 39.8297 638.33 39.8297C635.42 39.8297 633.6 38.6697 632.44 37.2997C631.28 35.8697 630.73 34.2698 630.73 30.4198V9.35974H630.74Z" fill="black"/>
        <path d="M662.63 0.389648V17.6596H672.64V0.389648H675.34V39.2296H672.64V20.0296H662.63V39.2296H659.93V0.389648H662.63Z" fill="black"/>
        <path d="M693.37 0.389648H690.57V39.2296H693.37V0.389648Z" fill="black"/>
        <path d="M721.04 0.32959V2.8096H714.11V39.2296H711.41V2.8096H704.65V0.32959H721.04Z" fill="black"/>
        <path d="M732.42 0.389648H746.18V2.80963H735.12V17.7696H744.2V20.1396H735.06V36.7996H746.12V39.2296H732.42V0.389648Z" fill="black"/>
        <path d="M758.05 9.35974C758.05 6.38974 758.05 4.18975 760.08 2.20975C761.68 0.449747 763.71 0.00976562 765.75 0.00976562C767.29 0.00976562 768.83 0.339741 770.1 1.10974C771.31 1.81974 773.13 3.35975 773.13 7.48975V12.9297H770.44C770.44 6.98975 770.44 5.88976 769.78 4.62976C769.07 3.19976 767.58 2.47977 766.04 2.47977C762.19 2.47977 760.7 4.89975 760.7 8.80975V27.7298C760.7 32.6798 760.7 37.2997 766.09 37.2997C770.82 37.2997 770.82 33.0098 770.82 31.8498V25.8498H773.57V31.8498C773.57 33.8298 773.57 39.8297 765.65 39.8297C762.74 39.8297 760.92 38.6697 759.76 37.2997C758.6 35.8697 758.05 34.2698 758.05 30.4198V9.35974V9.35974Z" fill="black"/>
        <path d="M800.3 0.32959V2.8096H793.37V39.2296H790.67V2.8096H783.91V0.32959H800.3Z" fill="black"/>
        <path d="M811.57 0.32959H814.21V30.4696C814.21 33.1696 814.21 37.3496 819.38 37.3496C820.86 37.3496 822.46 36.8496 823.4 35.4796C824.23 34.3796 824.34 33.1096 824.34 28.8796V0.32959H827.03V31.4596C827.03 33.0596 827.03 39.8796 819.22 39.8796C817.57 39.8796 815.65 39.4396 814.27 38.3996C811.58 36.3596 811.58 33.1696 811.58 30.0396V0.32959H811.57Z" fill="black"/>
        <path d="M845.01 2.69965V17.9896H849.91C852.94 17.9896 854.64 16.7796 854.64 13.8696V7.86963C854.64 3.40963 852.71 2.69965 850.07 2.69965H845.01ZM842.32 0.389648H849.8C852.77 0.389648 857.5 0.829638 857.5 7.15964V13.2096C857.5 14.8096 857.5 19.0396 852.05 20.0896L859.2 39.2296H856.34L849.24 20.3096H845V39.2296H842.31V0.389648H842.32Z" fill="black"/>
        <path d="M871.8 0.389648H885.55V2.80963H874.49V17.7696H883.57V20.1396H874.44V36.7996H885.5V39.2296H871.8V0.389648Z" fill="black"/>
        <path d="M63.3798 0.52002V15.91H7.61981V0.52002H-0.430176V39.36H7.61981V23.96H63.3798V39.36H71.4298V0.52002H63.3798Z" fill="black"/>
        <path d="M423.14 8.11002V0.52002H355.31V39.36L423.14 39.37V31.78H363.36V23.74H423.14V16.14H363.36V8.11002H423.14Z" fill="black"/>
        <path d="M331.45 18.19C331.45 19.71 330.21 20.95 328.69 20.95H275.69V8.57004H328.69C330.21 8.57004 331.45 9.81002 331.45 11.33V18.19ZM328.7 0.52002H267.65V39.37H275.7V29H328.7C334.66 29 339.51 24.15 339.51 18.19V11.32C339.5 5.37004 334.66 0.52002 328.7 0.52002Z" fill="black"/>
        <path d="M451.1 8.57004H504.1C505.62 8.57004 506.86 9.81002 506.86 11.33V18.2C506.86 19.72 505.62 20.96 504.1 20.96H451.1V8.57004ZM505.25 39.36H515.57L506.98 28.6C511.54 27.33 514.9 23.15 514.9 18.2V11.33C514.9 5.37002 510.05 0.52002 504.09 0.52002H443.04V39.37H451.09V29H496.98L505.25 39.36Z" fill="black"/>
        <path d="M148.3 0.52002H101.08C94.4496 0.52002 89.0796 5.34002 89.0796 11.27V28.61C89.0796 34.55 94.4496 39.36 101.08 39.36H148.3C154.93 39.36 160.3 34.54 160.3 28.61V11.27C160.3 5.33002 154.93 0.52002 148.3 0.52002ZM148.3 8.57004C150.63 8.57004 152.25 10 152.25 11.27V28.61C152.25 29.89 150.63 31.31 148.3 31.31H101.08C98.7496 31.31 97.1296 29.89 97.1296 28.61V11.27C97.1296 9.99002 98.7496 8.57004 101.08 8.57004H148.3Z" fill="black"/>
        <path d="M238.77 0.52002H191.55C184.92 0.52002 179.55 5.34002 179.55 11.27V28.61C179.55 34.55 184.92 39.36 191.55 39.36H238.77C245.4 39.36 250.77 34.54 250.77 28.61V11.27C250.78 5.33002 245.4 0.52002 238.77 0.52002ZM238.77 8.57004C241.1 8.57004 242.72 10 242.72 11.27V28.61C242.72 29.89 241.1 31.31 238.77 31.31H191.55C189.22 31.31 187.6 29.89 187.6 28.61V11.27C187.6 9.99002 189.22 8.57004 191.55 8.57004H238.77Z" fill="black"/>
        <path d="M550.82 4.16016H539.89V15.0901H550.82V4.16016Z" fill="black"/>
        <path d="M550.82 24.8003H539.89V35.7303H550.82V24.8003Z" fill="black"/>
    </g>
    <defs>
        <clipPath id="clip0">
            <rect width="886" height="40" fill="white"/>
        </clipPath>
    </defs>
</svg>
